# xmcd
#
# Track frame offsets:
#	150
#	21308
#	40353
#	62780
#	82766
#	95542
#	112842
#	128024
#	148564
#	172161
#	187555
#	209263
#	222389
#	240183
#	258310
#	273465
#	285045
#	300560
#	319547
#
# Disc length: 4447 seconds
#
# Revision: 0
# Processed by: cddbd v1.5PL3 Copyright (c) Steve Scherf et al.
# Submitted via: audiograbber 1.80
#
DISCID=fa115d13
DTITLE=ZZ top - comp
DYEAR=1900
DGENRE=
TTITLE0=I'm bad, I'm nationwide
TTITLE1=A fool for your Stockings
TTITLE2=Bad to the Bone
TTITLE3=Bang Bang
TTITLE4=Beatbox
TTITLE5=Betroom Thang
TTITLE6=Bee Drinkers
TTITLE7=Blue Jean Blues
TTITLE8=Brown Sugar
TTITLE9=Certified Blues
TTITLE10=Cheep Sunglasses
TTITLE11=Cocaine
TTITLE12=Doubleback
TTITLE13=Give me all your Lovin
TTITLE14=I thank you
TTITLE15=36-22-36
TTITLE16=Jesus just left Chicago
TTITLE17=Just got back from my Baby's
TTITLE18=Lowrider
EXTD=
EXTT0=
EXTT1=
EXTT2=
EXTT3=
EXTT4=
EXTT5=
EXTT6=
EXTT7=
EXTT8=
EXTT9=
EXTT10=
EXTT11=
EXTT12=
EXTT13=
EXTT14=
EXTT15=
EXTT16=
EXTT17=
EXTT18=
PLAYORDER=
